<svg xmlns="http://www.w3.org/2000/svg" viewBox="0 0 64 64" role="img" aria-label="ChalkTalk logo — a chalk speech bubble">
  <rect x="3" y="3" width="58" height="58" rx="15" fill="#1e3a5f"/>
  <rect x="4.5" y="4.5" width="55" height="55" rx="13.5" fill="none" stroke="#ffffff" stroke-opacity="0.35" stroke-width="1.6"/>
  <!-- chalk speech bubble -->
  <rect x="14" y="12" width="36" height="24" rx="8" fill="none" stroke="#ffffff" stroke-width="3.4"/>
  <path d="M22 36 L17.5 44.5 L29 36 Z" fill="#ffffff"/>
  <!-- chalk stick -->
  <polygon points="25.2,29.6 22.8,26.4 38.8,14.4 41.2,17.6" fill="#ffffff"/>
  <polygon points="38.8,14.4 41.2,17.6 44.5,12.5" fill="#f5b301"/>
  <!-- chalk flourish underline -->
  <path d="M18 49 q4 -3.5 8 0 t8 0 t8 0" fill="none" stroke="#ffffff" stroke-width="2.2" stroke-linecap="round"/>
  <!-- sparkles -->
  <path d="M8.5 22 l0.9 2.3 2.3 0.9 -2.3 0.9 -0.9 2.3 -0.9 -2.3 -2.3 -0.9 2.3 -0.9 Z" fill="#f5b301"/>
  <path d="M55.5 26 l0.7 1.8 1.8 0.7 -1.8 0.7 -0.7 1.8 -0.7 -1.8 -1.8 -0.7 1.8 -0.7 Z" fill="#ffffff" opacity="0.9"/>
</svg>
